<svg width="32" height="29" viewBox="0 0 32 29" fill="none" xmlns="http://www.w3.org/2000/svg">
<path d="M0 5.33333H32C32 3.37222 30.4056 1.77777 28.4444 1.77777H3.55556C1.59444 1.77777 0 3.37222 0 5.33333ZM0 7.1111V23.1111C0 25.0722 1.59444 26.6667 3.55556 26.6667H28.4444C30.4056 26.6667 32 25.0722 32 23.1111V7.1111H0ZM3.55556 22.5167C3.55556 20.8778 4.88333 19.5555 6.51667 19.5555H13.0389C14.6778 19.5555 16 20.8833 16 22.5167C16 22.8444 15.7333 23.1111 15.4056 23.1111H4.15C3.82222 23.1111 3.55556 22.8444 3.55556 22.5167ZM9.77778 10.6667C10.7208 10.6667 11.6251 11.0413 12.2919 11.7081C12.9587 12.3749 13.3333 13.2792 13.3333 14.2222C13.3333 15.1652 12.9587 16.0696 12.2919 16.7364C11.6251 17.4032 10.7208 17.7778 9.77778 17.7778C8.83479 17.7778 7.93042 17.4032 7.26362 16.7364C6.59682 16.0696 6.22222 15.1652 6.22222 14.2222C6.22222 13.2792 6.59682 12.3749 7.26362 11.7081C7.93042 11.0413 8.83479 10.6667 9.77778 10.6667ZM19.5556 11.5555C19.5556 11.0667 19.9556 10.6667 20.4444 10.6667H27.5556C28.0444 10.6667 28.4444 11.0667 28.4444 11.5555C28.4444 12.0444 28.0444 12.4444 27.5556 12.4444H20.4444C19.9556 12.4444 19.5556 12.0444 19.5556 11.5555ZM19.5556 15.1111C19.5556 14.6222 19.9556 14.2222 20.4444 14.2222H27.5556C28.0444 14.2222 28.4444 14.6222 28.4444 15.1111C28.4444 15.6 28.0444 16 27.5556 16H20.4444C19.9556 16 19.5556 15.6 19.5556 15.1111ZM19.5556 18.6667C19.5556 18.1778 19.9556 17.7778 20.4444 17.7778H27.5556C28.0444 17.7778 28.4444 18.1778 28.4444 18.6667C28.4444 19.1555 28.0444 19.5555 27.5556 19.5555H20.4444C19.9556 19.5555 19.5556 19.1555 19.5556 18.6667Z" fill="#222222"/>
</svg>
