<svg width="24" height="32" viewBox="0 0 24 32" fill="none" xmlns="http://www.w3.org/2000/svg">
<g clip-path="url(#clip0_142_1414)">
<path d="M4 0C1.79375 0 0 1.79375 0 4V28C0 30.2062 1.79375 32 4 32H20C22.2062 32 24 30.2062 24 28V10H16C14.8938 10 14 9.10625 14 8V0H4ZM16 0V8H24L16 0ZM5 4H9C9.55 4 10 4.45 10 5C10 5.55 9.55 6 9 6H5C4.45 6 4 5.55 4 5C4 4.45 4.45 4 5 4ZM5 8H9C9.55 8 10 8.45 10 9C10 9.55 9.55 10 9 10H5C4.45 10 4 9.55 4 9C4 8.45 4.45 8 5 8ZM6 14H18C19.1063 14 20 14.8938 20 16V20C20 21.1063 19.1063 22 18 22H6C4.89375 22 4 21.1063 4 20V16C4 14.8938 4.89375 14 6 14ZM6 16V20H18V16H6ZM15 26H19C19.55 26 20 26.45 20 27C20 27.55 19.55 28 19 28H15C14.45 28 14 27.55 14 27C14 26.45 14.45 26 15 26Z" fill="#222222"/>
</g>
<defs>
<clipPath id="clip0_142_1414">
<rect width="24" height="32" fill="white"/>
</clipPath>
</defs>
</svg>
