<svg width="181" height="40" viewBox="0 0 181 40" fill="none" xmlns="http://www.w3.org/2000/svg">
<g clip-path="url(#clip0_84_1409)">
<path d="M0.0779114 21.2468C0.0779114 20.53 0.0779114 19.817 0.0895997 19.0728C0.214275 18.1884 0.264924 17.3235 0.444145 16.4819C1.27401 12.6287 3.13246 9.34034 6.10908 6.75333C10.6363 2.82216 15.8883 1.45853 21.7636 2.61177C25.3948 3.32476 28.4727 5.10528 31.0208 7.7858C33.9545 10.8715 35.5636 14.5572 35.9298 18.7923C35.9454 18.9754 35.9766 19.1585 36 19.3377C36 19.9105 36 20.4832 35.9883 21.0832C35.9298 22.0806 35.8013 23.0351 35.5948 23.9819C34.8 27.6053 33.0506 30.691 30.3545 33.2312C27.8493 35.5962 24.8961 37.1118 21.5182 37.7936C21.4169 37.8131 21.2026 37.8715 21.0857 37.8832C21.1013 37.8364 21.2104 37.7702 21.2182 37.7663C21.2766 37.7274 21.3389 37.6884 21.3974 37.6533C22.1104 37.2403 22.7415 36.7261 23.287 36.1066C24.5104 34.7157 25.0402 33.0832 25.0363 31.2442C25.0247 26.0624 25.0324 20.8806 25.0286 15.6988C25.0286 15.3092 25.0013 14.9196 24.9506 14.5339C24.748 12.9559 24.0389 11.6274 22.8974 10.5287C20.9065 8.61957 18.5493 8.09749 15.9389 8.85333C13.5467 9.54684 11.0299 11.9546 11.0415 15.6403C11.0571 20.9079 11.0376 26.1715 11.0532 31.439C11.0532 32.0235 11.1156 32.6235 11.2558 33.1923C11.7545 35.2066 12.974 36.6754 14.7701 37.6845C14.8753 37.7429 14.9727 37.817 15.0779 37.8793C15.0117 37.8793 14.9454 37.8793 14.8558 37.8676C14.5792 37.8014 14.3221 37.7585 14.0688 37.7001C10.0597 36.765 6.72856 34.7196 4.12207 31.5325C1.7922 28.6806 0.471418 25.404 0.148041 21.7338C0.132457 21.5702 0.101288 21.4105 0.0779114 21.2468Z" fill="#345DE3"/>
<path d="M21.2182 37.7663C21.2766 37.7273 21.3389 37.6883 21.3974 37.6533C22.1104 37.2403 22.7415 36.726 23.287 36.1065C24.5104 34.7156 25.0402 33.0831 25.0364 31.2442C25.0247 26.0624 25.0325 20.8805 25.0286 15.6987C25.0286 15.3091 25.0013 14.9195 24.9506 14.5338C24.748 12.9559 24.0389 11.6273 22.8974 10.5286C20.9065 8.61951 18.5493 8.09743 15.9389 8.85327C13.5467 9.54678 11.0299 11.9546 11.0415 15.6403C11.0571 20.9078 11.0376 26.1714 11.0532 31.439C11.0532 32.0234 11.1156 32.6234 11.2558 33.1922C11.7545 35.2065 12.974 36.6753 14.7701 37.6844C14.8753 37.7429 14.9727 37.8169 15.0935 37.8792H21.0701M16.3325 33.1805C15.7792 32.6 15.6506 31.9182 15.6506 31.1701C15.6584 25.9766 15.6545 20.7792 15.6584 15.5857C15.6584 15.3481 15.674 15.1026 15.7208 14.8689C15.9234 13.8753 16.7376 13.1429 17.813 12.9637C19.0325 12.7611 20.3221 13.5909 20.6182 14.7909C20.6805 15.0403 20.7039 15.3052 20.7039 15.5624C20.7078 20.7948 20.7039 26.0312 20.7078 31.2637C20.7078 31.9922 20.548 32.6585 20.0143 33.1844C19.0364 34.1507 17.4273 34.287 16.3325 33.1805Z" fill="white"/>
<path d="M16.3247 33.1689C15.7792 32.6001 15.6506 31.9182 15.6506 31.1702C15.6584 25.9767 15.6545 20.7793 15.6584 15.5858C15.6584 15.3481 15.674 15.1027 15.7208 14.8689C15.9234 13.8754 16.7376 13.1429 17.813 12.9637C19.0325 12.7611 20.3221 13.591 20.6182 14.791C20.6805 15.0403 20.7039 15.3053 20.7039 15.5624C20.7078 20.7949 20.7039 26.0312 20.7078 31.2637C20.7078 31.9923 20.548 32.6585 20.0143 33.1845C19.0363 34.1507 17.4273 34.2871 16.3247 33.1689Z" fill="#345DE3"/>
</g>
<path d="M60.304 28.608C62.5867 28.608 64.3893 27.8827 65.712 26.432C67.056 24.96 67.728 22.9653 67.728 20.448C67.728 17.9307 67.056 15.9467 65.712 14.496C64.3893 13.024 62.5867 12.288 60.304 12.288C58.0213 12.288 56.208 13.024 54.864 14.496C53.5413 15.9467 52.88 17.9307 52.88 20.448C52.88 22.9653 53.5413 24.96 54.864 26.432C56.208 27.8827 58.0213 28.608 60.304 28.608ZM48.016 20.448C48.016 18.0587 48.5387 15.9253 49.584 14.048C50.6293 12.1707 52.08 10.7093 53.936 9.664C55.8133 8.59733 57.936 8.064 60.304 8.064C62.672 8.064 64.784 8.59733 66.64 9.664C68.5173 10.7093 69.9787 12.1707 71.024 14.048C72.0693 15.9253 72.592 18.0587 72.592 20.448C72.592 22.8373 72.0693 24.9707 71.024 26.848C69.9787 28.7253 68.5173 30.1973 66.64 31.264C64.784 32.3093 62.672 32.832 60.304 32.832C57.936 32.832 55.8133 32.3093 53.936 31.264C52.08 30.1973 50.6293 28.7253 49.584 26.848C48.5387 24.9707 48.016 22.8373 48.016 20.448ZM77.9688 32.64V20.864H75.2168V16.608H77.9688V14.304C77.9688 12.7253 78.4594 11.36 79.4408 10.208C80.4221 9.056 81.6914 8.37333 83.2488 8.16C83.5901 8.11733 83.8568 8.096 84.0488 8.096C84.7954 8.096 85.5421 8.21333 86.2888 8.448C87.0568 8.66133 87.6008 8.94933 87.9208 9.312L85.8408 12.992C85.2861 12.544 84.7954 12.32 84.3688 12.32C83.8994 12.32 83.5261 12.4907 83.2488 12.832C82.9714 13.1733 82.8328 13.664 82.8328 14.304V16.608H87.2488V20.864H82.8328V32.64H77.9688ZM90.9375 32.64V20.864H88.1855V16.608H90.9375V14.304C90.9375 12.7253 91.4282 11.36 92.4095 10.208C93.3908 9.056 94.6602 8.37333 96.2175 8.16C96.5588 8.11733 96.8255 8.096 97.0175 8.096C97.7642 8.096 98.5108 8.21333 99.2575 8.448C100.026 8.66133 100.57 8.94933 100.89 9.312L98.8095 12.992C98.2548 12.544 97.7642 12.32 97.3375 12.32C96.8682 12.32 96.4948 12.4907 96.2175 12.832C95.9402 13.1733 95.8015 13.664 95.8015 14.304V16.608H100.218V20.864H95.8015V32.64H90.9375ZM108.3 16.672V32.576H103.436V16.672H108.3ZM103.34 11.136C103.34 10.3893 103.574 9.78133 104.044 9.312C104.534 8.84267 105.142 8.608 105.868 8.608C106.614 8.608 107.222 8.84267 107.692 9.312C108.161 9.78133 108.396 10.3893 108.396 11.136C108.396 11.8613 108.161 12.4693 107.692 12.96C107.222 13.4293 106.614 13.664 105.868 13.664C105.142 13.664 104.534 13.4293 104.044 12.96C103.574 12.4693 103.34 11.8613 103.34 11.136ZM119.551 28.064C119.999 28.064 120.468 27.936 120.959 27.68C121.471 27.4027 121.94 27.04 122.367 26.592L125.503 30.016C124.841 30.784 123.956 31.4133 122.847 31.904C121.737 32.3947 120.671 32.64 119.647 32.64C118.089 32.64 116.703 32.2987 115.487 31.616C114.271 30.9333 113.321 29.9947 112.639 28.8C111.956 27.584 111.615 26.208 111.615 24.672C111.615 23.1147 111.956 21.7387 112.639 20.544C113.321 19.328 114.271 18.3787 115.487 17.696C116.703 17.0133 118.089 16.672 119.647 16.672C120.777 16.672 121.855 16.9067 122.879 17.376C123.903 17.8453 124.777 18.4853 125.503 19.296L122.367 22.688C121.94 22.24 121.471 21.888 120.959 21.632C120.468 21.376 119.999 21.248 119.551 21.248C118.569 21.248 117.812 21.5467 117.279 22.144C116.745 22.7413 116.479 23.584 116.479 24.672C116.479 25.7387 116.745 26.5707 117.279 27.168C117.812 27.7653 118.569 28.064 119.551 28.064ZM134.937 32.64C133.444 32.64 132.11 32.3093 130.937 31.648C129.764 30.9653 128.846 30.0267 128.185 28.832C127.524 27.616 127.193 26.24 127.193 24.704C127.193 23.1467 127.524 21.7707 128.185 20.576C128.846 19.36 129.764 18.4107 130.937 17.728C132.11 17.0453 133.444 16.704 134.937 16.704C138.009 16.704 140.26 18.1333 141.689 20.992C142.18 21.9307 142.425 23.2747 142.425 25.024L142.393 26.336H131.737C131.929 27.04 132.334 27.6053 132.953 28.032C133.593 28.4373 134.265 28.64 134.969 28.64C135.737 28.64 136.356 28.512 136.825 28.256C137.316 27.9787 137.657 27.6587 137.849 27.296L141.849 28.8C141.422 29.8453 140.612 30.752 139.417 31.52C138.244 32.2667 136.75 32.64 134.937 32.64ZM137.945 22.848C137.732 22.2293 137.369 21.7173 136.857 21.312C136.345 20.8853 135.705 20.672 134.937 20.672C134.169 20.672 133.497 20.8853 132.921 21.312C132.345 21.7173 131.961 22.2293 131.769 22.848H137.945Z" fill="#222222"/>
<path d="M169.4 32.576H164.536V22.208H153.784V32.576H148.92V8.32H153.784V18.048H164.536V8.32H169.4V32.576ZM178.449 15.072V32.704H173.585V15.072H178.449ZM173.489 9.216C173.489 8.49067 173.713 7.89333 174.161 7.424C174.609 6.93333 175.227 6.688 176.016 6.688C176.806 6.688 177.425 6.93333 177.873 7.424C178.321 7.89333 178.545 8.49067 178.545 9.216C178.545 9.94133 178.321 10.5493 177.873 11.04C177.425 11.5093 176.806 11.744 176.016 11.744C175.227 11.744 174.609 11.5093 174.161 11.04C173.713 10.5493 173.489 9.94133 173.489 9.216Z" fill="#345DE3"/>
<defs>
<clipPath id="clip0_84_1409">
<rect width="36" height="35.7662" fill="white" transform="translate(0 2.11694)"/>
</clipPath>
</defs>
</svg>
