<svg width="10" height="10" viewBox="0 0 10 10" fill="none" xmlns="http://www.w3.org/2000/svg">
<g clip-path="url(#clip0_54_1487)">
<path d="M0.686354 0.686293C0.185359 1.18729 0.185359 1.99741 0.686354 2.49307L3.19133 4.99805L0.686354 7.50302C0.185359 8.00402 0.185359 8.81414 0.686354 9.3098C1.18735 9.80547 1.99747 9.8108 2.49313 9.3098L4.99811 6.80483L7.50308 9.3098C8.00408 9.8108 8.8142 9.8108 9.30986 9.3098C9.80553 8.80881 9.81086 7.99869 9.30986 7.50302L6.80489 4.99805L9.30986 2.49307C9.81086 1.99208 9.81086 1.18196 9.30986 0.686293C8.80887 0.190628 7.99875 0.185298 7.50308 0.686293L4.99811 3.19127L2.49313 0.686293C1.99214 0.185298 1.18202 0.185298 0.686354 0.686293Z" fill="#222222"/>
</g>
<defs>
<clipPath id="clip0_54_1487">
<rect width="10" height="10" fill="white"/>
</clipPath>
</defs>
</svg>
