<?xml version="1.0" encoding="utf-8"?>
<!-- Generator: Adobe Illustrator 24.1.1, SVG Export Plug-In . SVG Version: 6.00 Build 0)  -->
<svg version="1.1" id="Layer_1" xmlns="http://www.w3.org/2000/svg" xmlns:xlink="http://www.w3.org/1999/xlink" x="0px" y="0px"
	 viewBox="0 0 924 918" style="enable-background:new 0 0 924 918;" xml:space="preserve">
<style type="text/css">
	.st0{fill:#345DE3;}
	.st1{fill:#FEFEFF;}
	.st2{fill:#355EE3;}
</style>
<path class="st0" d="M2,491c0-18.4,0-36.7,0.3-55.8c3.2-22.7,4.5-44.9,9.1-66.5C32.7,269.8,80.4,185.4,156.8,119
	C273,18.1,407.8-16.9,558.6,12.7c93.2,18.3,172.2,64,237.6,132.8c75.3,79.2,116.6,173.8,126,282.5c0.4,4.7,1.2,9.4,1.8,14
	c0,14.7,0,29.4-0.3,44.8c-1.5,25.6-4.8,50.1-10.1,74.4c-20.4,93-65.3,172.2-134.5,237.4c-64.3,60.7-140.1,99.6-226.8,117.1
	c-2.6,0.5-8.1,2-11.1,2.3c0.4-1.2,3.2-2.9,3.4-3c1.5-1,3.1-2,4.6-2.9c18.3-10.6,34.5-23.8,48.5-39.7c31.4-35.7,45-77.6,44.9-124.8
	c-0.3-133-0.1-266-0.2-399c0-10-0.7-20-2-29.9c-5.2-40.5-23.4-74.6-52.7-102.8c-51.1-49-111.6-62.4-178.6-43
	c-61.4,17.8-126,79.6-125.7,174.2c0.4,135.2-0.1,270.3,0.3,405.5c0,15,1.6,30.4,5.2,45c12.8,51.7,44.1,89.4,90.2,115.3
	c2.7,1.5,5.2,3.4,7.9,5c-1.7,0-3.4,0-5.7-0.3c-7.1-1.7-13.7-2.8-20.2-4.3C258.2,889.3,172.7,836.8,105.8,755
	C46,681.8,12.1,597.7,3.8,503.5C3.4,499.3,2.6,495.2,2,491z"/>
<path class="st1" d="M544.6,915c1.5-1,3.1-2,4.6-2.9c18.3-10.6,34.5-23.8,48.5-39.7c31.4-35.7,45-77.6,44.9-124.8
	c-0.3-133-0.1-266-0.2-399c0-10-0.7-20-2-29.9c-5.2-40.5-23.4-74.6-52.7-102.8c-51.1-49-111.6-62.4-178.6-43
	c-61.4,17.8-126,79.6-125.7,174.2c0.4,135.2-0.1,270.3,0.3,405.5c0,15,1.6,30.4,5.2,45c12.8,51.7,44.1,89.4,90.2,115.3
	c2.7,1.5,5.2,3.4,8.3,5h153.4 M419.2,797.3c-14.2-14.9-17.5-32.4-17.5-51.6c0.2-133.3,0.1-266.7,0.2-400c0-6.1,0.4-12.4,1.6-18.4
	c5.2-25.5,26.1-44.3,53.7-48.9c31.3-5.2,64.4,16.1,72,46.9c1.6,6.4,2.2,13.2,2.2,19.8c0.1,134.3,0,268.7,0.1,403
	c0,18.7-4.1,35.8-17.8,49.3C488.6,822.2,447.3,825.7,419.2,797.3z"/>
<path class="st2" d="M419,797c-14-14.6-17.3-32.1-17.3-51.3c0.2-133.3,0.1-266.7,0.2-400c0-6.1,0.4-12.4,1.6-18.4
	c5.2-25.5,26.1-44.3,53.7-48.9c31.3-5.2,64.4,16.1,72,46.9c1.6,6.4,2.2,13.2,2.2,19.8c0.1,134.3,0,268.7,0.1,403
	c0,18.7-4.1,35.8-17.8,49.3C488.6,822.2,447.3,825.7,419,797z"/>
</svg>
