<svg width="135" height="40" viewBox="0 0 135 40" fill="none" xmlns="http://www.w3.org/2000/svg">
<path d="M13.984 28.608C15.456 28.608 16.7573 28.2347 17.888 27.488C19.0187 26.72 19.8827 25.7067 20.48 24.448C21.0987 23.1893 21.408 21.856 21.408 20.448C21.408 19.04 21.0987 17.7173 20.48 16.48C19.8827 15.2213 19.0187 14.208 17.888 13.44C16.7573 12.672 15.456 12.288 13.984 12.288C12.512 12.288 11.2107 12.672 10.08 13.44C8.94933 14.208 8.07467 15.2213 7.456 16.48C6.85867 17.7173 6.56 19.04 6.56 20.448C6.56 21.856 6.85867 23.1893 7.456 24.448C8.07467 25.7067 8.94933 26.72 10.08 27.488C11.2107 28.2347 12.512 28.608 13.984 28.608ZM1.696 20.448C1.696 18.1867 2.21867 16.1173 3.264 14.24C4.30933 12.3413 5.76 10.8373 7.616 9.728C9.49333 8.61867 11.616 8.064 13.984 8.064C16.352 8.064 18.464 8.61867 20.32 9.728C22.1973 10.8373 23.6587 12.3413 24.704 14.24C25.7493 16.1173 26.272 18.1867 26.272 20.448C26.272 22.7093 25.7493 24.7893 24.704 26.688C23.6587 28.5653 22.1973 30.0587 20.32 31.168C18.464 32.2773 16.352 32.832 13.984 32.832C11.616 32.832 9.49333 32.2773 7.616 31.168C5.76 30.0587 4.30933 28.5653 3.264 26.688C2.21867 24.7893 1.696 22.7093 1.696 20.448ZM30.9598 32.8V19.392H28.1438V15.552H30.9598V13.824C30.9598 12.736 31.2158 11.712 31.7278 10.752C32.2398 9.77067 32.9224 8.96 33.7758 8.32C34.6504 7.68 35.6104 7.296 36.6558 7.168C37.0398 7.12533 37.3384 7.104 37.5518 7.104C38.2984 7.104 39.0558 7.21067 39.8238 7.424C40.5918 7.616 41.1678 7.88266 41.5518 8.224L39.4718 11.84C38.9384 11.4347 38.4051 11.232 37.8718 11.232C37.2318 11.232 36.7304 11.488 36.3678 12C36.0051 12.4907 35.8238 13.0987 35.8238 13.824V15.552H41.1678V19.392H35.8238V32.8H30.9598ZM43.866 32.8V19.392H41.05V15.552H43.866V13.824C43.866 12.736 44.122 11.712 44.634 10.752C45.146 9.77067 45.8287 8.96 46.682 8.32C47.5567 7.68 48.5167 7.296 49.562 7.168C49.946 7.12533 50.2447 7.104 50.458 7.104C51.2047 7.104 51.962 7.21067 52.73 7.424C53.498 7.616 54.074 7.88266 54.458 8.224L52.378 11.84C51.8447 11.4347 51.3113 11.232 50.778 11.232C50.138 11.232 49.6367 11.488 49.274 12C48.9113 12.4907 48.73 13.0987 48.73 13.824V15.552H54.074V19.392H48.73V32.8H43.866ZM61.2298 15.072V32.704H56.3658V15.072H61.2298ZM56.2698 9.216C56.2698 8.49067 56.4938 7.89333 56.9418 7.424C57.3898 6.93333 58.0084 6.688 58.7977 6.688C59.5871 6.688 60.2058 6.93333 60.6538 7.424C61.1018 7.89333 61.3258 8.49067 61.3258 9.216C61.3258 9.94133 61.1018 10.5493 60.6538 11.04C60.2058 11.5093 59.5871 11.744 58.7977 11.744C58.0084 11.744 57.3898 11.5093 56.9418 11.04C56.4938 10.5493 56.2698 9.94133 56.2698 9.216ZM72.5918 28.096C73.1251 28.096 73.6798 27.9467 74.2558 27.648C74.8531 27.3493 75.3651 26.9867 75.7918 26.56L78.9278 29.984C78.1171 30.816 77.1784 31.4667 76.1118 31.936C75.0451 32.4053 73.9144 32.64 72.7198 32.64C70.9278 32.64 69.3598 32.2667 68.0158 31.52C66.6931 30.752 65.6798 29.7067 64.9758 28.384C64.2718 27.0613 63.9198 25.568 63.9198 23.904C63.9198 22.24 64.2718 20.7467 64.9758 19.424C65.6798 18.08 66.6931 17.0347 68.0158 16.288C69.3598 15.52 70.9278 15.136 72.7198 15.136C73.9144 15.136 75.0451 15.3707 76.1118 15.84C77.1784 16.3093 78.1171 16.96 78.9278 17.792L75.7918 21.184C75.3651 20.7787 74.8531 20.4267 74.2558 20.128C73.6798 19.8293 73.1251 19.68 72.5918 19.68C71.3758 19.68 70.4371 20.096 69.7758 20.928C69.1144 21.76 68.7838 22.752 68.7838 23.904C68.7838 25.0347 69.1144 26.016 69.7758 26.848C70.4371 27.68 71.3758 28.096 72.5918 28.096ZM92.318 22.624C92.1473 21.5573 91.7313 20.6933 91.07 20.032C90.4087 19.3707 89.5447 19.04 88.478 19.04C87.4113 19.04 86.5047 19.3813 85.758 20.064C85.0327 20.7253 84.5847 21.5787 84.414 22.624H92.318ZM79.998 23.936C79.998 22.336 80.3287 20.8747 80.99 19.552C81.6727 18.208 82.654 17.1413 83.934 16.352C85.2353 15.5627 86.75 15.168 88.478 15.168C90.782 15.168 92.4993 15.744 93.63 16.896C94.7607 18.0267 95.4967 19.0187 95.838 19.872C96.286 20.96 96.5527 21.984 96.638 22.944C96.7233 23.904 96.766 24.9067 96.766 25.952H84.414C84.7767 26.7627 85.2993 27.4347 85.982 27.968C86.686 28.48 87.5287 28.736 88.51 28.736C89.342 28.736 90.046 28.5973 90.622 28.32C91.198 28.0427 91.6247 27.7013 91.902 27.296L95.87 28.768C95.3367 29.856 94.4407 30.7733 93.182 31.52C91.9233 32.2667 90.3553 32.64 88.478 32.64C86.75 32.64 85.2353 32.256 83.934 31.488C82.654 30.6987 81.6727 29.6427 80.99 28.32C80.3287 26.976 79.998 25.5147 79.998 23.936Z" fill="black"/>
<path d="M123.4 32.576H118.536V22.208H107.784V32.576H102.92V8.32H107.784V18.048H118.536V8.32H123.4V32.576ZM132.449 15.072V32.704H127.585V15.072H132.449ZM127.489 9.216C127.489 8.49067 127.713 7.89333 128.161 7.424C128.609 6.93333 129.227 6.688 130.016 6.688C130.806 6.688 131.425 6.93333 131.873 7.424C132.321 7.89333 132.545 8.49067 132.545 9.216C132.545 9.94133 132.321 10.5493 131.873 11.04C131.425 11.5093 130.806 11.744 130.016 11.744C129.227 11.744 128.609 11.5093 128.161 11.04C127.713 10.5493 127.489 9.94133 127.489 9.216Z" fill="#345DE3"/>
</svg>
